<?xml version="1.0" standalone="no"?>
<!DOCTYPE svg PUBLIC "-//W3C//DTD SVG 20010904//EN"
 "http://www.w3.org/TR/2001/REC-SVG-20010904/DTD/svg10.dtd">
<svg version="1.0" xmlns="http://www.w3.org/2000/svg"
 width="700.000000pt" height="700.000000pt" viewBox="0 0 700.000000 700.000000"
 preserveAspectRatio="xMidYMid meet">
<metadata>
Created by potrace 1.14, written by Peter Selinger 2001-2017
</metadata>
<g transform="translate(0.000000,700.000000) scale(0.100000,-0.100000)"
fill="#000000" stroke="none">
<path d="M2170 5910 c-435 -66 -827 -312 -1064 -670 -20 -30 -40 -59 -44 -65
-39 -48 -159 -341 -176 -427 -2 -12 -9 -44 -15 -70 -31 -136 -35 -452 -7 -583
10 -45 45 -182 54 -210 l9 -30 -256 -1 c-141 0 -267 -3 -281 -7 -106 -29 -145
-182 -67 -265 49 -53 54 -53 420 -54 l342 0 55 -77 c35 -49 301 -323 745 -769
379 -381 691 -696 693 -701 2 -5 -5 -8 -15 -8 -25 1 -166 -16 -233 -28 -14 -2
-45 -7 -70 -10 -25 -3 -79 -12 -120 -20 -41 -8 -86 -16 -100 -19 -25 -4 -202
-44 -230 -51 -8 -2 -40 -11 -70 -20 -30 -9 -64 -18 -74 -20 -32 -7 -150 -47
-161 -54 -5 -4 -37 -17 -70 -30 -144 -57 -290 -166 -322 -242 -58 -138 72
-278 365 -394 149 -59 414 -132 575 -159 15 -3 53 -10 85 -15 31 -6 72 -13 90
-16 17 -3 45 -7 60 -10 30 -5 81 -12 147 -20 22 -3 56 -7 75 -10 49 -6 139
-17 175 -20 164 -14 206 -17 245 -20 300 -25 957 -25 1325 0 177 11 457 40
585 60 232 36 269 43 375 66 426 93 693 202 813 333 49 53 64 86 64 137 -2
149 -209 289 -598 403 -106 31 -339 85 -434 100 -68 11 -296 45 -345 52 -27 3
-52 8 -54 10 -2 2 293 300 656 663 363 363 681 684 707 713 26 29 75 94 108
143 l62 90 270 -2 c149 -1 287 2 307 8 126 33 164 186 67 276 -41 38 -72 43
-290 43 l-210 0 5 23 c37 159 47 214 53 282 42 481 -113 916 -448 1255 -195
198 -458 348 -728 413 -62 15 -84 19 -210 37 -62 9 -304 6 -365 -4 -194 -32
-319 -69 -465 -139 -170 -80 -285 -162 -446 -319 l-111 -108 -104 101 c-217
211 -426 338 -679 412 -91 27 -100 29 -240 53 -80 14 -323 10 -430 -6z"/>
</g>
</svg>
