<?xml version="1.0" standalone="no"?>
<!DOCTYPE svg PUBLIC "-//W3C//DTD SVG 20010904//EN"
 "http://www.w3.org/TR/2001/REC-SVG-20010904/DTD/svg10.dtd">
<svg version="1.0" xmlns="http://www.w3.org/2000/svg"
 width="700.000000pt" height="700.000000pt" viewBox="0 0 700.000000 700.000000"
 preserveAspectRatio="xMidYMid meet">
<metadata>
Created by potrace 1.14, written by Peter Selinger 2001-2017
</metadata>
<g transform="translate(0.000000,700.000000) scale(0.100000,-0.100000)"
fill="#000000" stroke="none">
<path d="M4405 6974 c-725 -198 -1346 -583 -1770 -1099 -127 -154 -247 -342
-343 -535 -48 -97 -92 -189 -99 -205 -7 -17 -24 -59 -39 -95 -93 -227 -173
-502 -205 -700 -5 -36 -12 -75 -14 -87 -28 -162 -23 -488 11 -632 8 -35 13
-66 11 -67 -10 -10 -144 152 -225 271 -168 249 -261 549 -258 830 0 52 0 95
-1 95 -1 0 -22 -26 -48 -57 -25 -32 -49 -63 -54 -69 -20 -25 -131 -194 -173
-264 -165 -274 -308 -639 -363 -925 -5 -22 -9 -46 -11 -53 -7 -35 -25 -152
-30 -192 -3 -25 -7 -130 -9 -235 -3 -183 9 -354 35 -481 6 -28 13 -64 16 -80
3 -16 12 -54 20 -84 8 -30 17 -63 19 -73 12 -51 110 -327 150 -423 219 -519
509 -927 890 -1251 107 -92 206 -162 370 -264 48 -30 268 -141 310 -157 17 -6
54 -20 83 -31 28 -12 52 -17 52 -12 0 5 -9 13 -21 16 -11 4 -19 9 -16 11 2 2
22 -2 45 -10 39 -14 221 -60 272 -69 27 -5 76 -14 125 -22 158 -27 531 -27
730 0 65 9 194 35 275 56 94 25 110 29 110 24 0 -5 -137 -83 -160 -90 -12 -4
-20 -8 -18 -11 2 -2 33 6 68 17 36 11 72 22 80 24 23 5 112 35 135 45 11 5 54
23 95 40 204 85 452 242 667 423 49 41 220 212 278 277 153 172 300 391 400
595 104 212 199 523 231 755 1 14 8 57 13 96 28 190 31 651 6 873 -4 36 -8 73
-22 246 -10 117 -10 497 0 599 7 65 30 208 52 315 24 121 85 322 126 419 10
23 14 42 10 42 -5 0 -38 -12 -73 -28 -344 -149 -693 -495 -862 -852 -60 -129
-131 -348 -169 -525 -3 -11 -6 16 -7 60 -3 142 -32 335 -76 510 -14 55 -27
108 -29 118 -2 10 -25 82 -50 160 -84 261 -153 423 -347 817 -280 568 -339
762 -332 1084 2 78 5 152 9 166 3 14 7 41 10 60 3 19 7 46 10 60 3 14 7 35 9
47 23 117 102 336 172 476 19 37 34 69 34 72 0 7 -6 6 -105 -21z"/>
</g>
</svg>
