<?xml version="1.0" standalone="no"?>
<!DOCTYPE svg PUBLIC "-//W3C//DTD SVG 20010904//EN"
 "http://www.w3.org/TR/2001/REC-SVG-20010904/DTD/svg10.dtd">
<svg version="1.0" xmlns="http://www.w3.org/2000/svg"
 width="700.000000pt" height="700.000000pt" viewBox="0 0 700.000000 700.000000"
 preserveAspectRatio="xMidYMid meet">
<metadata>
Created by potrace 1.14, written by Peter Selinger 2001-2017
</metadata>
<g transform="translate(0.000000,700.000000) scale(0.100000,-0.100000)"
fill="#000000" stroke="none">
<path d="M3289 5976 c-2 -2 -40 -6 -84 -10 -44 -3 -90 -8 -101 -10 -12 -2 -39
-7 -60 -11 -456 -72 -855 -237 -1204 -498 -196 -146 -423 -398 -547 -604 -123
-206 -239 -500 -269 -683 -2 -14 -7 -36 -10 -48 -2 -13 -7 -43 -10 -65 -3 -23
-7 -48 -9 -55 -20 -59 -27 -496 -12 -722 13 -198 58 -442 108 -586 19 -56 20
-51 -31 -139 -43 -76 -132 -258 -203 -415 -9 -19 -29 -69 -45 -110 -16 -41
-33 -84 -37 -95 -5 -11 -9 -22 -10 -25 -1 -3 -15 -48 -33 -101 -32 -99 -34
-107 -52 -194 -36 -173 -29 -320 20 -415 113 -219 449 -225 1005 -18 44 16 94
36 110 43 17 7 59 25 95 40 36 15 112 49 169 76 134 63 141 65 188 40 207
-112 604 -228 878 -256 33 -4 76 -9 95 -12 64 -9 454 -11 550 -1 348 33 672
121 969 265 299 144 535 323 742 563 69 81 159 204 159 218 0 6 3 12 8 14 20
8 116 189 185 348 40 92 108 322 123 416 3 21 8 42 10 46 2 3 7 33 10 65 3 32
7 64 9 70 8 25 19 222 19 343 0 119 -9 294 -19 370 -2 19 -7 55 -10 80 -16
125 -38 233 -84 415 -4 17 -4 35 1 40 65 78 229 338 281 445 43 91 109 272
122 335 63 320 8 525 -165 615 -87 45 -246 67 -360 49 -25 -4 -72 -9 -105 -13
-33 -3 -71 -8 -85 -11 -14 -3 -41 -8 -60 -11 -106 -16 -118 -18 -245 -44 -55
-11 -118 -25 -140 -31 -22 -6 -49 -13 -60 -15 -11 -2 -60 -15 -110 -28 l-90
-25 -150 74 c-82 41 -194 90 -248 110 -103 37 -310 99 -362 108 -16 3 -68 12
-115 21 -159 30 -325 44 -526 44 -111 1 -203 -1 -205 -2z"/>
</g>
</svg>
